<?xml version="1.0" encoding="UTF-8" standalone="no"?>
<svg
   xmlns:dc="http://purl.org/dc/elements/1.1/"
   xmlns:cc="http://creativecommons.org/ns#"
   xmlns:rdf="http://www.w3.org/1999/02/22-rdf-syntax-ns#"
   xmlns:svg="http://www.w3.org/2000/svg"
   xmlns="http://www.w3.org/2000/svg"
   xmlns:sodipodi="http://sodipodi.sourceforge.net/DTD/sodipodi-0.dtd"
   xmlns:inkscape="http://www.inkscape.org/namespaces/inkscape"
   viewBox="0 0 48 48"
   width="480px"
   height="480px"
   version="1.1"
   id="svg3747"
   sodipodi:docname="logo.svg"
   inkscape:version="0.92.3 (2405546, 2018-03-11)">
  <metadata
     id="metadata3753">
    <rdf:RDF>
      <cc:Work
         rdf:about="">
        <dc:format>image/svg+xml</dc:format>
        <dc:type
           rdf:resource="http://purl.org/dc/dcmitype/StillImage" />
      </cc:Work>
    </rdf:RDF>
  </metadata>
  <defs
     id="defs3751" />
  <sodipodi:namedview
     pagecolor="#ffffff"
     bordercolor="#666666"
     borderopacity="1"
     objecttolerance="10"
     gridtolerance="10"
     guidetolerance="10"
     inkscape:pageopacity="0"
     inkscape:pageshadow="2"
     inkscape:window-width="3360"
     inkscape:window-height="1780"
     id="namedview3749"
     showgrid="false"
     inkscape:zoom="1.9666666"
     inkscape:cx="314.63305"
     inkscape:cy="67.194225"
     inkscape:window-x="6708"
     inkscape:window-y="-12"
     inkscape:window-maximized="1"
     inkscape:current-layer="svg3747" />
  <path
     style="clip-rule:evenodd;fill:#f44336;fill-rule:evenodd;stroke-width:1.24620879"
     d="m 20.0533,0.32203384 c -0.117144,0.2143479 -0.545821,0.70036936 -0.883544,1.24620876 0,0 -0.658027,-0.00625 -1.151525,0.3227486 -0.493499,0.3289991 -0.491094,0.9234601 -1.149092,0.9234601 h -2.795208 c -1.644995,0 -1.912881,-1.2462087 -1.912881,-1.2462087 H 1.5682753 C 0.9102771,1.8972417 0.32206657,2.2785816 0.32206657,3.5933318 v 8.5676852 2.648194 l 1.23136133,3.42464 -1.23136133,1.715971 v 1.401984 L 1.5682753,22.286463 V 24 l -1.24620873,1.246209 v 4.673283 l 1.24620873,0.77888 v 5.140611 C 0.26723339,36.764916 0.32206657,37.86415 0.32206657,39.127805 v 5.901968 C 3.2369488,45.757558 2.7534198,46.431757 6.085782,46.431757 h 4.829059 c 0.451127,-0.02866 0.802558,-0.123384 1.246209,-0.165755 1.238731,-0.119636 2.025089,-1.080453 2.025089,-1.080453 l 3.271298,1.246208 1.246209,-1.246208 c 0,0 1.633779,2.022596 2.025089,2.492417 l 1.090432,-1.246209 3.427074,1.246209 c 0,0 1.271133,-1.220038 2.648194,-1.246209 h 6.698372 c 0.102189,-0.09845 1.246209,-1.246208 1.246209,-1.246208 0.524654,0.314044 0.06106,1.246208 4.829059,1.246208 1.315996,0 2.492417,-0.311552 2.492417,-0.311552 -0.201886,-0.672952 -0.224317,-0.53587 -0.623104,-0.934656 0,0 3.115522,0 5.140611,1.246208 V 27.124284 l -2.492418,0.770118 c 0.0486,-0.395048 1.200099,-0.919702 1.246209,-1.713537 0.05857,-1.000705 -0.05476,-4.468933 -0.200562,-5.201704 -0.07477,-0.373862 -0.788928,-1.469251 -1.045647,-1.80822 0.305322,-0.823744 1.246209,-1.401985 1.246209,-1.401985 V 16.8343 l 1.246209,-0.72655 V 10.846169 L 46.43179,5.618421 47.677999,4.2687672 V 2.7784282 L 46.361934,1.6380984 42.087584,0.9315078 41.100596,1.6380984 40.606982,0.81564939 c 0,0 -6.460376,-0.49118158 -7.631812,-0.49118158 -1.49919,0 -1.281054,0.11230484 -1.788261,1.80091769 l -2.150927,0.2193036 -0.20689,-0.7764465 h -2.180866 l 0.359016,-0.3950385 c 0.381339,-0.3601543 0.247859,-0.2156038 0.545703,-0.85117026 z m 1.222112,6.23688596 h 5.633496 c 0.311111,0 0.563228,0.2521167 0.563228,0.5632278 v 2.6479493 c 1.522599,0.3586441 2.977174,0.9614061 4.306966,1.7850971 l 1.873694,-1.8729635 c 0.219989,-0.2199185 0.576416,-0.2199185 0.796405,0 l 3.981296,3.9832435 c 0.219918,0.219988 0.219918,0.576659 0,0.796647 l -1.873208,1.873208 c 0.824325,1.329933 1.427972,2.784642 1.787531,4.307453 h 2.647708 c 0.311111,0 0.56347,0.252117 0.56347,0.563228 v 5.633497 c 0,0.311111 -0.252359,0.56347 -0.56347,0.56347 H 38.34482 c -0.359066,1.521895 -0.962001,2.975649 -1.78534,4.305018 l 1.873208,1.873208 c 0.219918,0.21999 0.219918,0.576661 0,0.796649 l -3.983487,3.983486 c -0.219989,0.219919 -0.576416,0.219919 -0.796405,0 l -1.873208,-1.873207 c -1.329933,0.824324 -2.784642,1.427972 -4.307452,1.78753 v 2.647708 c 0,0.311111 -0.252117,0.563228 -0.563228,0.563228 h -5.633496 c -0.311111,0 -0.563472,-0.252117 -0.563472,-0.563228 v -2.647708 c -1.522669,-0.358854 -2.977379,-0.96179 -4.307452,-1.785339 l -1.872965,1.873207 c -0.223509,0.211327 -0.573139,0.211327 -0.796648,0 L 9.7513879,34.380043 c -0.2199185,-0.21999 -0.2199185,-0.57666 0,-0.796649 L 11.626786,31.710186 C 10.802462,30.380254 10.198815,28.925787 9.8392556,27.402977 H 7.1915493 c -0.3111111,0 -0.5634721,-0.252359 -0.5634721,-0.56347 V 21.20601 c 0,-0.311111 0.252361,-0.563228 0.5634721,-0.563228 H 9.8392556 C 10.19811,19.120112 10.801046,17.665403 11.624595,16.335329 L 9.7513879,14.462121 c -0.2199185,-0.219988 -0.2199185,-0.576659 0,-0.796647 L 13.734875,9.6822305 c 0.219989,-0.2199185 0.57666,-0.2199185 0.796648,0 l 1.873695,1.8753975 c 1.329651,-0.824536 2.783983,-1.428183 4.306722,-1.7875311 V 7.1221476 c 0,-0.3111111 0.252361,-0.5632278 0.563472,-0.5632278 z m 2.816626,11.2669922 c -3.422432,0 -6.196968,2.774535 -6.196968,6.196967 0,3.422433 2.774536,6.196725 6.196968,6.196725 3.422432,0 6.196967,-2.774292 6.196967,-6.196725 -0.004,-3.420742 -2.776225,-6.192953 -6.196967,-6.196967 z"
     id="path3745"
     inkscape:connector-curvature="0" />
  <g
     id="g3825"
     transform="matrix(0.05650656,0,0,0.05650656,10.060216,10.004668)">
    <g
       id="g3759">
      <g
         id="g3757" />
    </g>
    <g
       id="g3765">
      <g
         id="g3763" />
    </g>
    <g
       id="g3767" />
    <g
       id="g3769" />
    <g
       id="g3771" />
    <g
       id="g3773" />
    <g
       id="g3775" />
    <g
       id="g3777" />
    <g
       id="g3779" />
    <g
       id="g3781" />
    <g
       id="g3783" />
    <g
       id="g3785" />
    <g
       id="g3787" />
    <g
       id="g3789" />
    <g
       id="g3791" />
    <g
       id="g3793" />
    <g
       id="g3795" />
  </g>
</svg>
