<?xml version="1.0" standalone="no"?>
<!DOCTYPE svg PUBLIC "-//W3C//DTD SVG 20010904//EN"
 "http://www.w3.org/TR/2001/REC-SVG-20010904/DTD/svg10.dtd">
<svg version="1.0" xmlns="http://www.w3.org/2000/svg"
 width="700.000000pt" height="700.000000pt" viewBox="0 0 700.000000 700.000000"
 preserveAspectRatio="xMidYMid meet">
<metadata>
Created by potrace 1.11, written by Peter Selinger 2001-2013
</metadata>
<g transform="translate(0.000000,700.000000) scale(0.100000,-0.100000)"
fill="#000000" stroke="none">
<path d="M2915 6933 c-12 -12 -43 -53 -70 -92 -38 -54 -56 -71 -75 -72 -77 -2
-156 -44 -200 -105 -56 -78 -45 -76 -347 -72 -257 3 -270 4 -315 27 -54 26
-114 88 -124 126 l-6 25 -774 0 c-743 0 -776 -1 -812 -19 -69 -36 -123 -108
-138 -185 -4 -22 -7 -418 -7 -882 l0 -843 47 -133 c26 -73 54 -149 61 -168 8
-19 27 -72 43 -116 l29 -81 -89 -124 c-48 -68 -88 -131 -89 -139 -4 -64 1
-194 8 -200 4 -4 45 -35 91 -69 l82 -62 0 -122 0 -123 -92 -94 -93 -95 2 -325
c1 -179 2 -332 2 -340 1 -9 41 -40 91 -70 l89 -55 1 -374 0 -374 -40 -34 c-72
-62 -120 -151 -136 -251 -8 -46 -9 -1050 -2 -1057 3 -3 14 -7 26 -10 34 -6
226 -72 278 -95 132 -60 161 -68 284 -88 63 -10 991 -9 1070 1 149 19 245 58
317 128 l41 40 238 -91 238 -91 91 91 92 91 104 -128 c112 -138 131 -161 169
-205 l25 -29 78 90 78 90 92 -33 c51 -19 151 -55 222 -80 72 -26 142 -52 156
-57 23 -9 35 -4 100 43 87 62 175 104 249 118 31 6 261 10 549 10 l496 0 90
90 90 90 57 -55 c68 -65 137 -89 305 -110 112 -13 503 -14 558 -1 17 4 39 9
50 10 54 8 95 19 95 26 0 23 -25 69 -53 98 l-32 34 85 -6 c239 -15 488 -77
618 -152 l42 -25 1 23 c1 31 1 2748 0 2772 -1 21 12 24 -203 -43 -87 -27 -158
-46 -158 -41 0 4 32 38 71 76 110 108 111 111 110 343 -2 295 -14 515 -32 584
-12 44 -30 79 -101 189 -48 75 -49 77 -34 106 21 40 108 134 140 151 24 13 26
19 26 86 l0 71 78 44 c42 23 84 49 92 56 13 11 15 66 14 387 -1 207 -5 392 -9
414 -5 21 -9 44 -11 52 -4 20 -112 469 -139 580 -27 109 -35 87 80 215 39 42
72 84 75 91 4 11 4 129 1 202 -1 17 -184 171 -212 177 -13 3 -40 8 -59 11 -19
2 -46 7 -60 10 -14 3 -41 7 -60 10 -19 3 -45 7 -56 9 -12 2 -39 7 -60 10 -90
15 -160 26 -179 30 -12 2 -46 7 -77 11 -55 7 -56 7 -124 -43 l-69 -50 -32 50
c-18 28 -34 55 -35 59 -4 10 -59 17 -193 24 -55 4 -120 8 -145 10 -25 2 -88 7
-140 10 -52 4 -111 8 -130 10 -19 2 -92 6 -162 10 -69 4 -146 8 -170 10 -90 8
-294 6 -319 -4 -14 -5 -33 -16 -42 -25 -15 -15 -67 -160 -67 -188 0 -27 -18
-38 -66 -43 -27 -3 -67 -7 -89 -10 -22 -2 -70 -7 -107 -10 l-66 -6 -13 55 -12
56 -158 2 -158 3 45 50 c25 27 54 66 65 87 l19 38 -27 1 c-16 0 -260 2 -543 2
l-515 2 -20 -22z m1040 -896 c46 -15 52 -48 51 -255 0 -107 1 -197 4 -201 3
-4 34 -15 70 -25 172 -47 353 -123 506 -212 53 -31 31 -45 210 133 123 122
137 133 170 133 36 0 53 -15 340 -302 167 -167 309 -315 315 -330 18 -45 0
-72 -151 -222 l-139 -139 25 -41 c74 -122 170 -345 214 -503 l24 -83 205 0
c216 -1 226 -3 249 -47 17 -31 17 -861 0 -897 -6 -14 -20 -29 -32 -33 -12 -4
-109 -8 -216 -9 -107 -1 -198 -2 -202 -3 -4 -1 -12 -20 -18 -43 -37 -147 -131
-378 -214 -524 l-34 -61 144 -143 c79 -79 147 -153 150 -164 3 -12 1 -32 -4
-45 -11 -30 -600 -621 -630 -632 -13 -5 -34 -6 -46 -3 -12 3 -87 70 -166 149
l-144 144 -50 -28 c-109 -61 -144 -79 -236 -118 -91 -39 -207 -79 -297 -103
-29 -7 -43 -16 -44 -28 0 -9 -1 -104 -2 -210 l-2 -194 -28 -24 -28 -24 -438 0
-438 0 -27 26 -26 27 0 208 0 207 -30 7 c-130 29 -391 134 -520 209 l-75 45
-146 -146 c-130 -129 -150 -145 -184 -148 -38 -4 -39 -3 -353 311 l-315 315 6
40 c5 35 21 55 146 179 78 77 141 142 141 145 0 3 -26 53 -58 112 -68 127
-130 281 -168 413 -15 52 -29 97 -31 100 -2 2 -92 5 -201 5 -108 0 -206 4
-218 8 -46 16 -48 32 -49 470 0 227 3 426 7 442 16 62 28 65 257 65 l206 0 24
88 c41 151 149 402 223 522 11 18 -2 34 -135 168 -131 133 -147 152 -147 182
0 31 25 60 308 342 169 170 318 311 331 315 13 3 35 2 48 -3 13 -5 87 -72 163
-148 l140 -140 37 21 c198 110 429 204 558 229 l35 6 0 205 c0 127 4 212 11
224 22 42 47 44 485 43 230 0 428 -3 439 -7z"/>
<path d="M3365 4388 c-126 -23 -249 -71 -349 -137 -151 -98 -290 -274 -351
-443 -73 -200 -70 -441 7 -638 80 -205 240 -381 434 -478 32 -17 70 -33 84
-37 14 -4 30 -11 35 -15 21 -16 183 -43 273 -45 242 -5 469 85 643 255 185
181 274 393 273 650 -1 146 -23 248 -84 377 -102 218 -269 373 -502 466 -36
15 -83 29 -103 33 -21 3 -47 8 -59 11 -40 10 -251 11 -301 1z"/>
</g>
</svg>
