<svg xmlns="http://www.w3.org/2000/svg" viewBox="0 0 993.8 903.8"><defs/><defs><linearGradient id="a" x1="426.38" y1="120.54" x2="426.38" y2="887.39" gradientTransform="matrix(1 0 0 -1 0 930.11)" gradientUnits="userSpaceOnUse"><stop offset="0" stop-color="#c23026"/><stop offset="1" stop-color="#9c1c1f"/></linearGradient><style>.d,.e{fill-rule:evenodd}.c{fill:#282829}.d{fill:#212121}.e{fill:#7a923b}</style></defs><path d="M776.3 254.5c14.6-44.8 29-89.6 35.5-111.2a20.6 20.6 0 00.2-9.6 30.2 30.2 0 00-3.6-9.4 76.3 76.3 0 01-8.6-19.8 47 47 0 01-.1-22.1l92 29.9 92.1 29.9a49.8 49.8 0 01-12.6 18.3 42.7 42.7 0 01-18.9 9.7c-4.6 1.1-7.7 2.8-9.9 5.3s-3.7 5.7-5 9.7c-6.6 21-21.1 65.4-35.5 109.7s-28.7 88.7-35.3 109.7a39.8 39.8 0 00-1.8 10.5 32.3 32.3 0 001 10.4q21.3 74.5 42.9 149L952 723.4c4.1 14.4 8.6 28.6 12.9 43s8.4 28.6 12 43.1c3 12.6 2.9 24.5-.3 35.6s-9.6 21.4-19.1 30.6-22.6 16.8-35.2 19.4-25.9 1.2-39.9-3.2c-19.6-6.2-39.1-12.5-58.7-18.9L765 853.9 604.8 802l-160.1-52.1" fill="none" stroke="#282829" stroke-miterlimit="10" stroke-width="15"/><path d="M373.5 819.9c-8.1 0-16.1-5.3-24.6-16.3-2.4-3.2-4.6-6.4-6.4-9.3l-1.2.6-2.6-.2-4.6-.2a112.6 112.6 0 01-11.6-.9c-10.4-.4-19.7-4.5-26-7.7a67.1 67.1 0 00-7.3-.7 58.1 58.1 0 01-9.9-1h-.4c-12.7 6.1-21.7 8-36.5 8L229 792c-9.2-.2-15.3-.6-19.3-4.8h-3.1a100 100 0 00-10.6.5 6 6 0 01-.8.8l-6.9 6-6.9-6.1c-.5-.4-1-1-1.5-1.5a78.4 78.4 0 00-8.7-.9l-12.1 1.2a35.4 35.4 0 01-4.5.2 27.1 27.1 0 00-4.6.4 29.1 29.1 0 01-11.7 2.2 68.1 68.1 0 01-13.2-1.6l-4.5-.7h-.5c-2.4 0-6.4 1.2-10.2 2.3-5.4 1.6-11 3.2-16.8 3.2a24 24 0 01-9-1.6l-1.5-.6-1.3-1.1c-5.8-4.8-6.6-4.8-7.6-4.8a46.6 46.6 0 00-6.1.6l-2.5.4-2 .2-2-.5c-10.2-2.5-21.2-6.6-25.4-17.3-3.1-7.8-1.5-16.1.6-27.7v-.2c1.1-9 .7-21.4.4-33.4-.2-5.3-.4-10.4-.4-15.3v-.2c.1-3.6-.2-8.5-.6-13.7-1.3-22.2-3.1-52.1 13.9-65.6 6.1-12.7 8.2-30.1 6.2-51.9v-.9c-.2-16.2-2.9-18.7-13.4-25.3l-5.3-3.4.5-6.3c.5-6.8.1-20.8-.3-34.2-.4-17.2-.9-35.1.2-45v-1.2l.4-1.2c2.2-6.1 6.5-11.8 10.6-17.3 9.9-13.1 11.2-16.9 7.3-21.6-7.8-9.1-16.1-38.2-11-52.2l.3-1.1c3.9-12.3 4.3-13.6.6-27.5-8.9-36-17.3-69.9-13.6-109.5v-.4c1.1-8.4 2.7-16.7 4.2-24.8 2.5-13.2 5-26.8 5.5-41.1 0-4.4.2-8.6.3-12.6.5-14.5 1-26.9-2.8-37.3S36.2 80.2 37 73.1a70 70 0 00.5-9.2v-.2c0-12.9 7-18.1 11.2-20a20.4 20.4 0 018.6-1.8 25.5 25.5 0 016.6.9h.3c3.3.4 14.2.4 20.2.4s10.8 0 12.7.2c11.4-.4 110-3.3 130.5-3.3h3.9a25.1 25.1 0 0120 11.2 156.3 156.3 0 0022 1.4c17.3 0 29.5-2 34-3.7 4-4.4 9.9-4.6 13.4-4.7h1c14.5-.1 21.5-1.6 24.5-2.5a13.3 13.3 0 013.7-9.7c1.7-1.8 4.8-3.8 9.8-3.8H377l12 .2c13 0 29.1-.6 44.8-1.3s28.8-1.2 39.5-1.2h7.8l2.5 1.5c7.4 4.6 6.8 11.3 6.5 13.2-.1.3-.1.6-.2.8 8.7 2 17 3.6 17.1 3.6l9.5 1.8-1 9.4a5.5 5.5 0 00.3 1.6h5.2c8.8 0 9.4-1.5 10.4-4.1v-.5q.9-2.2 1.8-4.2c4.6-10.7 9.3-21.8 25.9-21.8a63 63 0 0111.1 1.2h.4c19 4.6 39.3 5.2 58.3 5.2h38.7l3.6.2 4.8-.2 5.1-.2c12.6 0 18.3 6.3 20.7 13.1 3.8-5.6 9.3-11.2 17.3-11.2 6.1 0 11.1 3.1 17.5 7.4a22.1 22.1 0 003.9.3 113.4 113.4 0 0012.1-1 128.1 128.1 0 0115.3-1.1c12 0 21.1 3.4 27.7 10.4a17 17 0 009.3 5.2c3.8 1 11.7 3.1 14.1 13.2 1.3 5.5 1 13.3-1.1 29.7l-.3 2-1 1.8c-5.3 9.2-4.4 13.7-2 27.1.9 4.6 1.9 9.8 2.7 16 5.2 22.9 3.1 135.5 2.3 149.6l-.6 9.7-9.7.2c-3.3 0-8.6.1-10.6 1.1s-2.4 3.3-3.3 5.8a16 16 0 01.6 13.1c-1.7 5-5.3 9.3-8.5 13.1l-2.6 3.1c2 3.9 8 11.1 10.7 14.4a89.3 89.3 0 017.5 9.8c9.9 16.7 9.5 29.7 7.8 47.6-1 11.7-.9 12.5-.8 16.6s.3 6.7.3 15.1v.2c-.2 9.6-1.2 16.5-3.1 21.4h13.4l.5 340.2-13.6-4.2c-6.2-1.9-13.8-6-20.9-11.3l-.6-.4-.2-.2c-2.2-1.4-8.5-2.8-15.2-3.7L740.6 799l-16 5.9h-10c-13 0-39.9-.8-51.8-4.1l-4.3-.2c-13-.7-25.2-1.8-33.6-6.2a72.2 72.2 0 01-34.6 8.4h-5.5c-7.5.4-15.1.6-23.8.6h-14.8l-15-.2c-10.9 0-20 .3-29.7.9-18.2 1.1-29.7 2.7-32.7 3.6a41.5 41.5 0 00-5.9 2.6c-3 1.7-6.9 3.9-12.7 3.9a31.4 31.4 0 01-9.1-1.5h-.3l-1.9-.7a45.6 45.6 0 01-6-2.5l-.8.4a18.5 18.5 0 01-8.6 2.1c-5.2 0-9.6-2.1-13.1-3.8-1.8-.9-4.1-2-5.2-2h-3.8c-5.1 0-9.3 1.2-10.8 2.1v.2l-.5 1c-5.3 9-12.7 10.4-16.6 10.4zm-212.5-34z" transform="translate(-20.8 -15.6)" fill="url(#a)" fill-rule="evenodd"/><path class="c" d="M452.5 21h4.8c5.7 3.5-4.3 6.4-10.3 7.5s3.6 4 14.3 6.5 22.9 5 22.9 5c-.4 3.5 1.9 13 8.9 13h7.1c8.4 0 16.4-1 20.2-10.8 5.8-13.2 7.2-19.8 18.1-19.8a49.9 49.9 0 019.1 1c19.5 4.7 40.1 5.5 60.8 5.5l31.4-.2h5.9a40.3 40.3 0 004.9.3c3.5 0 6.9-.4 9.9-.4 5.9 0 10.3 1.4 11.7 9.2 1 4.4 1.7 9.2 4.6 11.4a3.2 3.2 0 001.8.6c2.5 0 5.3-3.4 8.1-7.4 4.8-8.5 8-11.9 11.8-11.9s7.3 2.7 13.4 6.8a34.4 34.4 0 008 .9c8.5 0 18.4-2.1 27.4-2.1s14.8 1.5 20.2 7.1c16.7 17.3 25.2-4.8 19.4 39.5-9.5 16.6-4 24.6-.5 50.3 4.8 19.2 3 131.3 2.1 147-13.4.2-19.5 1.2-24.1 15.4-2.3 4.4 3.3 6.6 1.2 11.4s-9.8 12.4-12.2 17.5c-2 8 16.1 25.3 20 31.9 8.2 13.9 8.1 23.9 6.5 41.4-1.7 19.7-.6 10.7-.6 32.6-.2 9.4-1.3 19.3-4.8 21.2s-9.5 6.8-6 10.7c.5.8 2.9 1 5.8 1 5.9 0 14.3-.9 15.3-.9.1 78.6.4 236.9.5 315.6-4.7-1.5-11.4-5-17.8-9.7s-28.9-7.6-36.4-7.6H732c-5.7 0-16.3 1.4-20.7 5-8.1 5 2.9 7.8 4.9 8.1l-14.5 5.4h-7.9c-15 0-40.8-1.1-49.9-3.9-7.6-.8-33.8-.6-38.8-8.6-11.1 6.8-21.7 10.4-35.6 10.4h-5.4c-8.6.4-16.4.6-23.9.6-10 0-19.5-.3-29.8-.3s-19.1.2-30.4 1c-15.5.9-30.1 2.4-35.2 4-7.8 2.4-9.8 6-15.4 6a20.8 20.8 0 01-6.2-1.1c-6-2.2-8.9-2.9-8.6-6-1.5.4-6.5 2.4-8.1 3.8a7.7 7.7 0 01-3.8 1c-5.8 0-11.6-5.8-18.3-5.8h-.3l-3.5-.2c-7.3 0-18.6 2.1-20.6 8.7-2.1 3.8-4.6 5.3-7.3 5.3-10.6 0-24.1-23.3-26.6-28.4l-7.5 3.2c-6-.3-9.4-.2-16-1.1-8.2-.2-15.8-3.3-22.9-7-4.3-1.6-14.5-1.1-18.8-2.2a9 9 0 00-2.3-.2 14.7 14.7 0 00-4.4.8c-12.2 5.9-19.8 7.3-32.6 7.3l-13.1-.3c-12.4-.2-12.4-1.5-12.1-2.6s.8-2.3-10.6-2.3-15.9 1-17.6 1.9l-.3.3c-2.1-2.4-14.6-3.6-23.1-3.6-5.3 0-9 .5-7.5 1.4-3.8.4-7.8 0-11.7 1.3a19.8 19.8 0 01-8.1 1.5c-5.4 0-11.2-1.5-16.4-2.2h-1.8c-8 0-18.6 5.5-27 5.5a12.5 12.5 0 01-5.1-.9c-6.7-5.6-9.7-7.2-14.3-7.2a87.3 87.3 0 00-10 1.1c-22.3-5.6-20.8-12.8-17-33.5 1.8-14 .2-34.4.1-50.4.2-18.8-7.4-60.9 11-72.4 9.1-16.8 10.4-38.6 8.5-59.9-.2-20-5.1-25.7-18.3-34.1 1.2-16.1-1.9-61.9-.1-78.8 5.3-14.9 30.7-31.7 16-49.2-6.1-7.2-12.8-32.7-9.1-42.1 4.5-14.4 5.7-17.3 1.2-34.7-9-36.3-16.8-68.4-13.3-106 2.7-21.8 8.9-42.9 9.7-67 .2-20.5 2.6-38.4-3.3-54-4.5-10.4-.8-18.7-1.1-30 0-6.2 2.3-9.2 5.1-10.5a10.4 10.4 0 014.2-.8 13.2 13.2 0 013.7.5c2 1.4 33.8.5 35.6 1.1 4.4-.2 110.3-3.3 131-3.3h3.3a15 15 0 0113.5 9.8c5.5 1.8 16.9 2.8 29.1 2.8 16.6 0 34.6-1.9 41.1-6.1.8-1.9 2.4-2.1 6.6-2.3s37.2.2 35.6-9.8c.4-3.3-1-6.2 3.1-6.2h16.6l12.5.2c25.4 0 62.5-2.5 84.3-2.5M167.9 763.2c.4.5.3 1-.4 1.6s-.9-.8.4-1.6M452.5 0c-10.9 0-25 .6-40 1.2s-31.6 1.3-44.3 1.3l-11.4-.2h-17.7c-8.6 0-14.2 3.7-17.3 6.9a22.6 22.6 0 00-5.2 8.2 152.4 152.4 0 01-15.7.9h-1.2a34.4 34.4 0 00-10.1 1.5 23 23 0 00-8.2 4.3c-4.2 1.1-14 2.6-28.7 2.6a160.7 160.7 0 01-16.5-.8 35.5 35.5 0 00-25.1-11.7h-4.3c-20.1 0-116.1 2.8-130.2 3.3-2.6-.2-6.3-.2-13-.2s-14.7 0-18.4-.3a36.4 36.4 0 00-8.7-1.1 30.1 30.1 0 00-13 2.8C18.3 21 6.2 28.7 6.2 48.1v.4a55.8 55.8 0 01-.5 7.9c-.8 7.5-1.8 17.7 3.1 29.2 3 8.5 2.6 19.9 2.1 33.1-.1 4.1-.3 8.3-.3 12.7-.5 13.5-2.8 26.1-5.3 39.5-1.6 8.2-3.2 16.7-4.3 25.4v.7c-3.8 41.4 4.8 76.2 13.9 113h.1c1.6 6.1 2.2 9.8 2.1 11.7s-.9 4.7-2.6 10.1l-.3.8c-3 8.4-2.9 19.7.3 33.4 1.6 6.9 5.2 19.4 11.7 27.8a80.5 80.5 0 01-6.7 9.7c-4.4 5.8-9.3 12.4-12.1 20.1l-.8 2.3-.3 2.5c-1.1 10.6-.7 28-.2 46.4.4 13.2.8 26.8.3 33.1l-1 12.6 10.5 6.9c4.2 2.6 6.6 4.5 7.2 5.6s1.3 2.9 1.4 11.1v1.6c1.7 18.8.2 33.7-4.4 44.5-8.7 7.9-14 19.9-15.8 35.8-1.4 12.5-.6 26.1.1 36.9.3 5 .6 9.8.5 13v.4c0 5 .2 10.3.4 15.6.3 11.4.7 23.2-.3 31.4-2.2 12.2-4.1 22.8 0 33.4 6.8 17.1 24.9 21.7 32.6 23.6l4 1 4-.5 2.6-.4 2.8-.4 2.7 2.2 2.6 2.2 3.1 1.2a34.4 34.4 0 0012.9 2.4c7.3 0 13.9-1.9 19.7-3.6a64.7 64.7 0 017.1-1.9l3.4.6a88.8 88.8 0 0015 1.7 42.4 42.4 0 0014.5-2.5h2.1l5.3-.3 11.2-1.1 3.6.3 5.7 4.9 4.4 5.2.8-.6 2.4 2.1 12.1-10.5h5.5c6.8 4.5 15.2 4.7 22.8 4.8l13.7.3c15.3 0 25.4-2 38.2-7.7q3.9.4 8.1.6l4.6.3c7.1 3.5 16.9 7.5 28.3 8a102.7 102.7 0 0012.1 1h3.3c1.2 1.6 2.3 3.3 3.6 4.9 10.6 13.7 21.4 20.4 32.9 20.4 9.7 0 18.4-4.9 24.2-13.7a34.6 34.6 0 013.7-.3h.9l1.6.2h.1l1.9.9c4 1.9 10 4.8 17.6 4.8a32.3 32.3 0 009.3-1.5l2.5.9 1.6.5.6.3h.6a41.9 41.9 0 0012.1 2 34.2 34.2 0 0017.8-5.2 20.4 20.4 0 013.8-1.7h.1c1.7-.5 10.5-2 30.2-3.2h.1c9.4-.6 18.3-.9 29-.9l14.9.2h14.9c8.7 0 16.3-.2 23.8-.6h5.5a82.8 82.8 0 0034.9-7.3c10.4 3.8 22.6 4.5 32.7 5.1l3.1.2c4.2 1 11.4 2.3 25.1 3.2 8.9.6 19.6.9 28.5.9 3.6 0 6.5 0 8.8-.2h3.3l3-1.1 7.6-2.8 7-2.6 27.7-10a52.1 52.1 0 018.6 1.9c8 6 16.8 10.7 24.1 13l27.3 8.4v-28.5l-.3-171.3-.2-144.4v-20.4l-11-.3c.4-3.5.6-7.1.7-10.7v-.5c0-8.6-.2-12.8-.3-15.5s-.2-4.3.8-15.3c1.8-19.3 2.2-34.4-9.3-53.9a92.7 92.7 0 00-8.4-11.1c-1.5-1.7-3.7-4.5-5.7-7a45.5 45.5 0 007.9-13.3 26 26 0 001.5-13.1h2l19.5-.3 1.2-19.5c.5-8.4 1.1-41.2 1.1-73.4-.1-59.4-2.4-73.6-3.6-78.8s-1.8-11.6-2.6-15.9c-2.5-13.3-2.5-14.5.7-20l2-3.6.6-4.1c2.4-18 2.6-26.4.9-33.4-3.8-16.3-17.3-19.8-21.7-21-2.3-.5-2.7-.6-4.3-2.3-8.6-9.1-20.5-13.6-35.3-13.6a138.9 138.9 0 00-16.5 1.2c-4 .4-7.9.9-10.9.9h-.4c-6.4-4.2-12.8-7.7-21-7.7a27 27 0 00-16.1 5.3 26.4 26.4 0 00-2.9-2.1c-6.9-4.5-14.1-5.1-19-5.1l-5.6.2-4.3.2h-2.5l-1.1-.2h-38.7c-18.5 0-38-.6-55.9-4.9h-.9a75.1 75.1 0 00-13.1-1.5c-10.7 0-19.3 3.7-25.8 10.9a46.1 46.1 0 00-6.7 10.4l-17.9-3.3-8.9-1.8a23.4 23.4 0 00-11-14.4l-4.8-3h-10.9z"/><path class="d" d="M564.6 651.3c-30.9-34.7-84.9-80.6-110.1-119.4L433 515.7c-13-16.7-35.4-28.1-43.2-48.7-46.6-41.3-89.2-98.2-136.5-138.9l-29.1-33c-1.3-.4-4.1-1.7-5.4-2.1l-.6-6.5-114.9-118.4c32.8-4 53.6-36.5 86.4-7.2 15.5 11.3 43.3 31.6 57.7 42.4 1.3 3 4 9.3 5.4 12.4 122.9 62.8 261.6 168.3 375 248.1l-2.2-1.6M476.7 188.7l137.6 105.9 16.6 1.1c-.6-6.1-2-18.3-2.6-24.4 1.3-3.7 4-11.3 5.4-15.1s1.6-14.6 2.1-19.4c1.1-2.5 3.3-7.3 4.3-9.8s2.9-10.5 3.8-14c-.7-7-2-21.1-2.7-28.1l-45.3-30.3c-21.9 6.7-48.1 14.4-70.2 20.5-32.7 2-20.2-.2-49 13.6zM166.1 483.4l152.6 146.5-45 18.1c-21.9 4.5-15.2 1.2-33.4 14.3l-59.4 2.7c-20.3-16.3-44.7-35.6-65.2-51.6 11.7-40.9 34.1-90.7 50.4-130z"/><path class="e" d="M909.1 891.3a83.6 83.6 0 01-25.2-4.2c-21.4-6.7-42.6-13.6-58.7-18.8l-24.6-8.1-.8-.2-33.2-10.8-81.5-26.4-78.7-25.6-160.2-52.1c-18.3-5.9-32-15.3-40.7-27.7s-12.3-27.4-10.9-45.1a57.7 57.7 0 019.2-26.9c4.7-7.5 11.3-14.4 20.1-21.2l2.8-2.2 150.6-116.7 153.2-119.1a42.9 42.9 0 008.4-8.6 37.9 37.9 0 005.7-10.6c6.9-20.3 21.2-63.8 36.5-110.9 16.2-50.1 29.5-91.7 35.5-111.3 1.4-4.3.9-8.9.3-12.1a36.4 36.4 0 00-4.2-11c-4.1-6.9-6.7-12.8-8.1-18.4a61.2 61.2 0 01-1.1-7.1l-.5-7.4 174.4 56.6-4.2 5.6a41.1 41.1 0 01-5.3 5.7 37.4 37.4 0 01-16.8 8.6c-5.3 1.3-9.4 3.5-12.4 6.9s-4.9 8-6 11.5c-5.9 18.4-17.6 54.5-30 92.7l-5.5 16.9c-13.6 42-28.7 88.4-35.4 109.8a51.2 51.2 0 00-2 11.7 36.1 36.1 0 001.2 12.1c12.6 44 26.2 91.4 42.9 149q15.8 54 31.4 108.1l11.9 40.8c2.6 9.2 5.5 18.5 8.2 27.5v.2c1.5 5.1 3.1 10.2 4.6 15.3 3.8 12.6 8.1 27.6 11.9 42.9 2.9 11.7 2.8 22.7-.2 33s-9 19.9-17.8 28.4-20.6 15.6-32.7 18.1a69.2 69.2 0 01-12.1 1.1z"/><path class="c" d="M808.5 95.8L969.2 148a44 44 0 01-4.6 5 34.5 34.5 0 01-14.6 7.5c-6.4 1.5-11.3 4.2-15 8.3s-5.8 9.4-7.1 13.4c-5.8 18.3-17.5 54.4-30 92.6l-5.5 17c-13.6 41.9-28.7 88.4-35.3 109.8a51.4 51.4 0 00-2.3 13 39.8 39.8 0 001.4 13.6c12.6 44.1 26.2 91.5 42.9 149.1q15.9 54.6 31.7 109.2l11.6 39.7c2.7 9.3 5.5 18.7 8.3 27.7 1.5 5.1 3.1 10.2 4.6 15.3 3.8 12.6 8.1 27.5 11.8 42.7 2.7 10.8 2.6 21-.1 30.4s-8.3 18.3-16.5 26.3-19.1 14.4-30.1 16.6a53.5 53.5 0 01-11.3 1.1 79.8 79.8 0 01-23.7-3.9c-21.4-6.8-42.5-13.7-58.6-18.9l-24.7-8-34-11.1-81.4-26.4-78.8-25.6-160.1-52c-17.3-5.6-30.2-14.3-38.3-25.8s-11.2-25.4-9.9-41.9a52.8 52.8 0 018.4-24.6c4.4-7 10.6-13.5 19-20l153.4-118.8 153.2-119.2a49.3 49.3 0 009.3-9.5 44.1 44.1 0 006.5-12c6.8-20.3 21.1-63.8 36.5-111 16.2-50.1 29.5-91.8 35.5-111.3a31.3 31.3 0 00.4-14.5 41.3 41.3 0 00-4.8-12.7 60.7 60.7 0 01-7.5-17 45.8 45.8 0 01-1-6.3m-11-14.1l1 14.8a44.5 44.5 0 001.3 8 70.7 70.7 0 008.6 19.7 31.8 31.8 0 013.6 9.5 20.4 20.4 0 01-.2 9.6c-5.9 19.6-19.2 61.1-35.5 111.2-15.3 47.1-29.6 90.7-36.4 110.9a33.3 33.3 0 01-5 9.2 41.1 41.1 0 01-7.4 7.6L574.3 501.4 421.7 619.6l-.8.6c-9.3 7.2-16.3 14.6-21.3 22.5a62.1 62.1 0 00-9.9 29.2c-1.6 18.8 2.3 35.1 11.7 48.4s23.9 23.3 43.3 29.6L604.8 802l78.8 25.5 81.4 26.4 34 11.1h.4l24.3 7.9c16.1 5.3 37.3 12.1 58.7 18.9a87.2 87.2 0 0026.7 4.4 71.2 71.2 0 0013.2-1.2c13-2.6 24.5-9 35.2-19.4s15.8-19.5 19.1-30.6 3.3-23.1.3-35.6c-3.8-15.4-8.2-30.5-12-43.1-1.5-5.1-3.1-10.1-4.6-15.2v-.2c-2.7-9-5.6-18.3-8.2-27.5l-11.6-39.7c-10.4-35.8-21.1-72.8-31.7-109.2-16.7-57.6-30.3-105-42.9-149a31.5 31.5 0 01-1-10.4 40.5 40.5 0 011.8-10.5c6.7-21.4 21.7-67.8 35.3-109.7l5.6-17c12.4-38.3 24.1-74.4 29.9-92.7 1-3 2.4-6.9 5-9.7s5.5-4.3 9.9-5.3a42.7 42.7 0 0018.9-9.7 41.3 41.3 0 006-6.5l8.4-11.2-13.4-4.4-160.7-52.1-14.1-4.6z"/><path d="M909.1 874.3a65.1 65.1 0 01-20-3.4c-21.4-6.7-42.6-13.6-58.6-18.8l-24.7-8-34-11.1-81.4-26.4-78.8-25.6-160.1-52c-14.8-4.8-25.6-12-32.1-21.3s-8.9-20.4-7.8-34a41.1 41.1 0 016.5-19.2c3.7-5.7 9-11.3 16.2-16.9 47.5-36.7 101.3-78.4 153.4-118.9C645 474.3 695.2 435.3 741 399.6a64.3 64.3 0 0011.5-11.8 54.7 54.7 0 008.2-15.4c6.9-20.3 21.2-63.9 36.6-111.1 16.3-50.2 29.6-91.9 35.6-111.5a43.4 43.4 0 00.7-20.4 54.4 54.4 0 00-5.2-14.5L940 151.1a37.5 37.5 0 00-13.9 9.7c-5.4 5.9-8 12.6-9.6 17.8-5.8 18.2-17.6 54.3-30 92.6l-5.5 16.9c-14.2 43.9-28.7 88.5-35.4 109.9a61.7 61.7 0 00-2.8 16 55.4 55.4 0 001.8 17.5c12.6 44.2 26.3 91.5 43 149.1l31.8 109.5 11.5 39.4c2.7 9.4 5.5 18.8 8.3 27.9 1.5 5.1 3.1 10.2 4.6 15.3 3.7 12.4 8 27.1 11.7 42.1 2.1 8.7 2.1 16.8 0 24.1s-6.7 14.6-13.4 21.1-15.4 11.7-24.1 13.5a43.4 43.4 0 01-8.9.8z" fill="#f1f2f2" fill-rule="evenodd"/><path class="e" d="M678 502.3a157.8 157.8 0 01-30.7-2.8l3.1-2.4 15.4-12.2 27.7-21.4 24.2-18.7c14.1-11 32.8-25.6 51.6-40.5a36.6 36.6 0 007.5-8.1 41.1 41.1 0 004.8-9.6c5.4-15.9 12.3-37 21.9-66.5 4.7-14.3 9.3-28.6 13.6-41.9l6.1-18.9h3.7c7.7 0 15.4-1.8 22.8-3.6s12.4-3 17.8-3.2c-.7 2.3-2.6 8-2.6 8-2.3 7.1-4.6 14-5.2 15.8l-9.6 29.4-10.3 31.7c-9 27.6-15.2 47.1-19.6 61.4a40.7 40.7 0 00-.4 22.6c6.4 22.8 9.2 32.6 12 42.2 1.3 4.6 2.7 9.4 4.6 15.9 1.1 3.8 2.4 8.2 3.9 13.5a169.8 169.8 0 00-36.5-3.7c-21.6 0-43.2 3.3-64.1 6.5s-41.3 6.5-61.7 6.5zM684.7 620.2a27.3 27.3 0 01-27.3 27.3 27.3 27.3 0 01-27.3-27.3 27.3 27.3 0 0127.3-27.3 27.3 27.3 0 0127.3 27.3zM810.4 660.9a27.3 27.3 0 01-54.6 0 27.3 27.3 0 0154.6 0zM595 672.2a23.5 23.5 0 11-40-16.6 23.5 23.5 0 0140 16.6zM720.9 712.4A23.3 23.3 0 01714 729a23.5 23.5 0 110-33.2 23.3 23.3 0 016.9 16.6zM845.3 752.6a23.4 23.4 0 01-23.4 23.5 23.5 23.5 0 01-16.6-40.1 23.4 23.4 0 0116.6-6.8 23.2 23.2 0 0123.4 23.4z"/></svg>