<svg xmlns="http://www.w3.org/2000/svg" viewBox="0 0 52.966 52.966"><path d="M51.704 51.273L36.845 35.82c3.79-3.801 6.138-9.041 6.138-14.82 0-11.58-9.42-21-21-21s-21 9.42-21 21 9.42 21 21 21c5.083 0 9.748-1.817 13.384-4.832l14.895 15.491a.998.998 0 0 0 1.414.028 1 1 0 0 0 .028-1.414zM21.983 40c-10.477 0-19-8.523-19-19s8.523-19 19-19 19 8.523 19 19-8.524 19-19 19z"/><path d="M39.633 10.447a20.238 20.238 0 0 0-7.397-7.398C29.12 1.232 25.72.323 22.033.323c-3.688 0-7.089.909-10.203 2.726a20.236 20.236 0 0 0-7.397 7.398c-1.818 3.114-2.726 6.515-2.726 10.202 0 4.43 1.292 8.412 3.877 11.95 2.585 3.537 5.924 5.985 10.017 7.344.477.088.83.026 1.059-.185.23-.212.344-.477.344-.794l-.013-1.429c-.01-.9-.014-1.685-.014-2.355l-.609.105c-.388.071-.877.101-1.468.093-.591-.008-1.205-.07-1.84-.185a4.11 4.11 0 0 1-1.773-.794 3.358 3.358 0 0 1-1.164-1.627l-.265-.61c-.177-.405-.454-.855-.834-1.349-.38-.494-.763-.83-1.15-1.006l-.186-.132a1.943 1.943 0 0 1-.344-.318 1.452 1.452 0 0 1-.238-.37c-.053-.124-.01-.226.132-.306.141-.08.397-.118.768-.118l.529.08c.353.07.79.281 1.31.634s.948.812 1.283 1.376c.406.724.896 1.275 1.47 1.655.573.379 1.15.568 1.733.568.582 0 1.085-.044 1.508-.131.423-.089.82-.221 1.191-.398.159-1.182.591-2.09 1.297-2.726a18.122 18.122 0 0 1-2.713-.476c-.803-.212-1.632-.556-2.488-1.033a7.125 7.125 0 0 1-2.13-1.773c-.565-.706-1.028-1.633-1.39-2.78-.361-1.146-.542-2.47-.542-3.97 0-2.135.697-3.952 2.091-5.452-.653-1.605-.591-3.405.185-5.398.512-.16 1.27-.04 2.276.357 1.006.397 1.743.737 2.21 1.019.468.282.843.52 1.125.714a18.793 18.793 0 0 1 5.082-.687c1.747 0 3.44.229 5.082.687l1.006-.634c.687-.424 1.5-.812 2.434-1.165.935-.353 1.65-.45 2.145-.291.793 1.994.864 3.793.21 5.399 1.395 1.5 2.092 3.317 2.092 5.452 0 1.5-.181 2.827-.542 3.983-.362 1.156-.83 2.082-1.403 2.78a7.4 7.4 0 0 1-2.144 1.76c-.856.476-1.685.82-2.488 1.031-.803.212-1.707.372-2.713.477.918.794 1.376 2.047 1.376 3.758v5.584c0 .318.11.582.331.794.221.211.57.274 1.046.185 4.094-1.358 7.433-3.806 10.018-7.344 2.584-3.538 3.877-7.52 3.877-11.95-.001-3.687-.91-7.087-2.727-10.201z"/></svg>
