<?xml version="1.0" encoding="UTF-8" standalone="no"?>
<svg
   xmlns:dc="http://purl.org/dc/elements/1.1/"
   xmlns:cc="http://creativecommons.org/ns#"
   xmlns:rdf="http://www.w3.org/1999/02/22-rdf-syntax-ns#"
   xmlns:svg="http://www.w3.org/2000/svg"
   xmlns="http://www.w3.org/2000/svg"
   xmlns:sodipodi="http://sodipodi.sourceforge.net/DTD/sodipodi-0.dtd"
   xmlns:inkscape="http://www.inkscape.org/namespaces/inkscape"
   viewBox="0 0 150.00003 140.625"
   width="150.00003"
   height="90"
   version="1.1"
   id="svg4"
   sodipodi:docname="arrow.svg"
   inkscape:version="0.92.3 (2405546, 2018-03-11)">
  <metadata
     id="metadata10">
    <rdf:RDF>
      <cc:Work
         rdf:about="">
        <dc:format>image/svg+xml</dc:format>
        <dc:type
           rdf:resource="http://purl.org/dc/dcmitype/StillImage" />
        <dc:title></dc:title>
      </cc:Work>
    </rdf:RDF>
  </metadata>
  <defs
     id="defs8" />
  <sodipodi:namedview
     pagecolor="#ffffff"
     bordercolor="#666666"
     borderopacity="1"
     objecttolerance="10"
     gridtolerance="10"
     guidetolerance="10"
     inkscape:pageopacity="0"
     inkscape:pageshadow="2"
     inkscape:window-width="3840"
     inkscape:window-height="2050"
     id="namedview6"
     showgrid="false"
     inkscape:zoom="3.6875"
     inkscape:cx="-6.2087345"
     inkscape:cy="-9.7864299"
     inkscape:window-x="-12"
     inkscape:window-y="-12"
     inkscape:window-maximized="1"
     inkscape:current-layer="svg4"
     inkscape:pagecheckerboard="true" />
  <path
     d="m 128.70638,0.21952 c -1.25582,0.304589 -3.09589,1.286607 -4.45912,2.379663 -8.88613,7.128803 -8.21957,9.184522 8.61609,26.561361 5.24615,5.415364 5.58645,6.450354 2.68531,8.17398 -2.34099,1.391533 3.24747,1.299851 -88.455737,1.449598 -67.869671,0.111038 -84.870967,0.204757 -85.464237,0.470636 -5.06847,2.276775 -5.09558,14.350306 -0.0371,16.980567 l 1.2769,0.664187 94.743892,0.137523 c 88.407542,0.128356 94.864342,0.167066 96.535762,0.584729 3.96322,0.990168 5.53526,1.846888 7.40644,4.035037 0.44772,0.524626 1.60617,1.83772 2.57289,2.918548 4.16499,4.65237 3.91503,7.412 -1.21868,13.47322 -2.862,3.379 -3.84076,4.28767 -5.58546,5.18514 -3.2023,1.64722 4.80245,1.51377 -99.832422,1.66556 -105.118732,0.1528 -96.032842,-0.001 -97.775532,1.64824 -2.79875,2.6486 -2.38717,10.86332 0.70069,13.983571 1.96756,1.98747 -5.10561,1.82958 82.855227,1.84588 91.097877,0.0173 89.402367,-0.0173 91.244437,1.853 2.4996,2.53552 1.48571,4.36 -7.78991,14.02534 -2.23559,2.32975 -5.17588,5.75153 -7.02398,8.175 -1.7166,2.25029 -1.60416,4.48632 0.38247,7.60555 4.20615,6.60316 11.21306,8.59368 15.36903,4.36509 2.03983,-2.07507 6.53911,-7.11148 8.22157,-9.20286 0.86432,-1.07472 2.11513,-2.48153 2.77867,-3.12636 0.66355,-0.64483 2.1071,-2.28696 3.20732,-3.64793 1.10023,-1.36098 2.54478,-3.00311 3.20933,-3.64794 0.66455,-0.64483 2.11813,-2.30428 3.2294,-3.68766 1.11127,-1.3844 2.36107,-2.79122 2.77767,-3.12637 0.4156,-0.33616 1.47266,-1.49034 2.34802,-2.56506 0.87436,-1.07472 2.52972,-2.95013 3.67813,-4.16849 1.14841,-1.21733 2.54577,-2.80038 3.10392,-3.51652 0.55814,-0.71716 1.89227,-2.241121 2.96539,-3.387151 1.07313,-1.14705 2.8108,-3.13961 3.86284,-4.42927 a 108.73362,110.34058 0 0 1 3.5928,-4.16848 c 0.92556,-1.00342 2.55682,-2.87883 3.62492,-4.16849 a 186.56957,189.32686 0 0 1 3.92709,-4.55966 c 5.0785,-5.66596 7.10228,-10.19812 5.84344,-13.08611 -0.64949,-1.48831 -3.84979,-5.630311 -6.59834,-8.538675 -1.15142,-1.217337 -2.73752,-3.034682 -3.52655,-4.038093 -0.78802,-1.002393 -2.09002,-2.46829 -2.8921,-3.256757 A 36.742118,37.285126 0 0 1 176.03822,48.9527 c -0.72077,-0.931084 -2.36508,-2.806495 -3.65504,-4.168485 -1.28896,-1.360972 -2.87505,-3.178318 -3.52354,-4.038093 a 30.600529,31.052771 0 0 0 -2.50863,-2.865579 c -0.73081,-0.717159 -2.09204,-2.241121 -3.02462,-3.387149 a 94.904505,96.307089 0 0 0 -3.52153,-4.038093 101.46269,102.9622 0 0 1 -3.73835,-4.297859 112.07345,113.72977 0 0 0 -3.46833,-4.038093 c -1.4596,-1.591196 -4.8185,-5.484635 -9.8689,-11.440924 C 134.36716,0.818511 132.3725,-0.668779 128.70642,0.21952"
     id="path1"
     inkscape:connector-curvature="0"
     style="fill:#ffffff;fill-rule:evenodd;stroke-width:1.01124632;fill-opacity:1" />
</svg>
