<svg xmlns="http://www.w3.org/2000/svg" viewBox="0 0 52.966 52.966"><path d="M51.704 51.273L36.845 35.82c3.79-3.801 6.138-9.041 6.138-14.82 0-11.58-9.42-21-21-21s-21 9.42-21 21 9.42 21 21 21c5.083 0 9.748-1.817 13.384-4.832l14.895 15.491a.998.998 0 0 0 1.414.028 1 1 0 0 0 .028-1.414zM21.983 40c-10.477 0-19-8.523-19-19s8.523-19 19-19 19 8.523 19 19-8.524 19-19 19z"/><path d="M11.373 24.982l-1.325 4.945-4.842.103a18.942 18.942 0 0 1-2.267-9.018c0-3.155.767-6.13 2.127-8.75h.001l4.31.79 1.889 4.285a11.31 11.31 0 0 0-.61 3.675c0 1.397.252 2.735.717 3.97z" fill="#fbbb00"/><path d="M40.661 17.458c.219 1.15.333 2.34.333 3.554 0 1.363-.143 2.692-.416 3.973a19.024 19.024 0 0 1-6.7 10.866v-.001l-5.43-.277-.768-4.797a11.34 11.34 0 0 0 4.88-5.79H22.384v-7.528h10.323z" fill="#518ef8"/><path d="M33.877 35.85h.001a18.947 18.947 0 0 1-11.912 4.19c-7.246 0-13.546-4.05-16.76-10.01l6.167-5.048c1.606 4.289 5.743 7.342 10.593 7.342a11.25 11.25 0 0 0 5.714-1.548z" fill="#28b446"/><path d="M34.112 6.365l-6.165 5.047a11.247 11.247 0 0 0-5.98-1.71c-4.96 0-9.175 3.192-10.701 7.635l-6.199-5.075c3.166-6.106 9.545-10.277 16.9-10.277 4.616 0 8.85 1.644 12.145 4.38z" fill="#f14336"/></svg>